# xmcd
#
# Track frame offsets:
#	150
#	10715
#	23342
#	46982
#	64130
#	73997
#	87367
#	101957
#	110405
#	128855
#	138687
#	162485
#	171067
#	179542
#	191655
#	200877
#	216727
#
# Disc length: 3036 seconds
#
# Revision: 1
# Processed by: cddbd v1.5PL3 Copyright (c) Steve Scherf et al.
# Submitted via: EasyCDDAExtractor 7.0.5.4
#
DISCID=080bda11
DTITLE=Peter Horan - The Goanna - More Country Piano
DYEAR=1900
DGENRE=Country
TTITLE0=Goldrush
TTITLE1=Just Married
TTITLE2=Room Full Of Roses-Paper Roses
TTITLE3=Maggie
TTITLE4=Crazy Heart
TTITLE5=Lights On The Hill
TTITLE6=Rose-Marie - China Doll
TTITLE7=Along The Road To Gundagai
TTITLE8=Crazy
TTITLE9=Drivin' Home
TTITLE10=He'll Have To Go - Lay Down Beside Me
TTITLE11=On The Rebound
TTITLE12=Country Revival
TTITLE13=Gemini Sunset
TTITLE14=Hello Mary Lou
TTITLE15=Always On My Mind
TTITLE16=Goanna
EXTD=
EXTT0=
EXTT1=
EXTT2=
EXTT3=
EXTT4=
EXTT5=
EXTT6=
EXTT7=
EXTT8=
EXTT9=
EXTT10=
EXTT11=
EXTT12=
EXTT13=
EXTT14=
EXTT15=
EXTT16=
PLAYORDER=
